<svg id="Lager_1" data-name="Lager 1" xmlns="http://www.w3.org/2000/svg" viewBox="0 0 30 30"><defs><style>.cls-1{fill:#fff}</style></defs><path class="cls-1" d="M15 12.4a2.6 2.6 0 102.6 2.6 2.61 2.61 0 00-2.6-2.6z"/><path class="cls-1" d="M18.12 8.24h-6.24a3.64 3.64 0 00-3.64 3.64v6.24a3.64 3.64 0 003.64 3.64h6.24a3.64 3.64 0 003.64-3.64v-6.24a3.64 3.64 0 00-3.64-3.64zM15 19.16A4.16 4.16 0 1119.16 15 4.16 4.16 0 0115 19.16zm4.47-8.08a.56.56 0 11.56-.55.55.55 0 01-.56.55z"/><path class="cls-1" d="M15 0a15 15 0 1015 15A15 15 0 0015 0zm8.32 18.12a5.2 5.2 0 01-5.2 5.2h-6.24a5.2 5.2 0 01-5.2-5.2v-6.24a5.2 5.2 0 015.2-5.2h6.24a5.2 5.2 0 015.2 5.2z"/></svg>