<svg data-name="Lager 1" xmlns="http://www.w3.org/2000/svg" viewBox="0 0 30 30"><path d="M15 0a15 15 0 1015 15A15 15 0 0015 0zm-4.34 22.6H7.25V12.34h3.41zm-.3-12.16a2 2 0 01-1.4.5 1.89 1.89 0 01-1.37-.5 1.73 1.73 0 01-.52-1.27 1.63 1.63 0 01.54-1.26A1.9 1.9 0 019 7.4a1.86 1.86 0 011.37.51 1.7 1.7 0 01.53 1.26 1.65 1.65 0 01-.54 1.27zM23 22.6h-3.46v-5.49a3 3 0 00-.42-1.7 1.47 1.47 0 00-1.31-.62 1.68 1.68 0 00-1.09.36 2.18 2.18 0 00-.65.88 2.41 2.41 0 00-.12.84v5.73h-3.4V12.34H16v1.46a4.14 4.14 0 01.41-.55 5.34 5.34 0 01.58-.54 2.92 2.92 0 01.9-.45A4.39 4.39 0 0119 12.1a3.65 3.65 0 012.84 1.18A4.91 4.91 0 0123 16.72z" fill="#fff"/></svg>