<svg data-name="Lager 1" xmlns="http://www.w3.org/2000/svg" viewBox="0 0 329.82 98.04"><path d="M18.44.58C32 .58 39.68 7.84 39.68 20.5s-7.7 19.94-21.24 19.94h-16V.58zM17.9 32.5c8.34 0 12.78-4.2 12.78-12s-4.44-12-12.78-12h-6.6v24zm57.82-8.32H59.1v8.34h20.94v7.92H50.22V.58h29.82V8.5H59.1v8.22h16.62zM118.5 2.94v9.18h-.42c-2.64-2.7-7.14-4.26-12.18-4.26-4.38 0-7.14 1.68-7.14 4.38 0 2.28 1.74 3.3 7.68 4 10.5 1.14 14.46 4.74 14.46 12.36 0 8-5.76 12.48-16 12.48-6.54 0-11.64-1.2-14.82-3.48v-9.22h.42a21.8 21.8 0 0014.1 4.8c4.86 0 7.44-1.5 7.44-4.38 0-2.4-1.86-3.48-7.92-4.14-10.22-1.14-14.18-4.56-14.18-11.88 0-8 6-12.78 16.08-12.78 4.98 0 10.02 1.2 12.48 2.94zM131.58.58h8.86v39.86h-8.88zm28.5 19.94c0 7.68 5.34 12.6 13.56 12.6a23.48 23.48 0 005.16-.54V25.8h-8.76v-7.44h17.34v19.56c-3.78 2.16-8.16 3.12-14.1 3.12-13.56 0-22.2-8-22.2-20.52S159.72 0 173.28 0c5.94 0 10.32 1 14.1 3.12v9.72h-.42c-3.48-3.36-7.92-4.92-13.32-4.92-8.2 0-13.56 4.92-13.56 12.6zm48.6-9.66h-.12v29.58h-8.58V.58h12.18l15.06 26.76h.12V.58h8.58v39.86h-10.68zM33.54 60.12v9.72h-.42c-2.52-3.18-6.54-4.92-11.4-4.92-7.68 0-12.72 5-12.72 12.6s5 12.6 12.72 12.6c4.8 0 8.88-1.68 11.4-4.92h.42v9.72c-3.18 2.1-6.78 3.12-12.24 3.12C8.58 98.04 0 89.52 0 77.52S8.58 57 21.3 57c5.52 0 9.06.96 12.24 3.12zm51.06 17.4c0 12-8.64 20.52-20.94 20.52s-20.94-8.52-20.94-20.52S51.36 57 63.66 57 84.6 65.52 84.6 77.52zm-32.88 0c0 7.44 4.86 12.6 11.94 12.6s11.94-5.16 11.94-12.6-4.86-12.6-11.94-12.6-11.94 5.16-11.94 12.6zm83.04 19.92v-30h-.12l-11.52 30h-8l-11.2-29.16h-.12v29.16h-8.58V57.58h13.32l10.68 27.8h.12l10.68-27.8h13.62v39.84zm39.48-39.86c10 0 15.06 4.5 15.06 13.26s-5.1 13.2-15.06 13.2h-8.7v13.38h-8.88V57.58zm-.42 18.54c4.44 0 6.48-1.68 6.48-5.28s-2-5.34-6.48-5.34h-8.28v10.64zm47.76 14.6h-18.3l-2.7 6.72h-9.3l17-39.84h8.58l17 39.84h-9.54zm-9.24-22.92l-6.06 15.3h12.3l-6.14-15.3zm39.78.06H252v29.58h-8.56V57.58h12.18l15.06 26.76h.12V57.58h8.58v39.84h-10.7zm52.56 29.58V81.12l-16.32-23.54h10.74l10.14 15.44 10.14-15.44h10.44l-16.26 23.54v16.32zM249.44.58h80v39.8h-80z"/><path d="M263.27 9.98v1.38h-.06a2.54 2.54 0 00-1.83-.64c-.65 0-1.07.25-1.07.65s.26.5 1.16.6c1.57.17 2.17.71 2.17 1.85s-.87 1.88-2.4 1.88a3.8 3.8 0 01-2.22-.53V13.8h.06a3.33 3.33 0 002.12.72c.72 0 1.11-.23 1.11-.66s-.28-.52-1.19-.62c-1.54-.17-2.13-.69-2.13-1.78s.9-1.88 2.45-1.88a3.6 3.6 0 011.83.4zm4.6 5.6h-1.33v-4.76h-1.78V9.63h4.89v1.19h-1.78zm9.14-3a3.14 3.14 0 11-3.14-3 3 3 0 013.14 3zm-4.93 0a1.79 1.79 0 103.58 0 1.79 1.79 0 10-3.58 0zm11.19-2.57v1.45h-.06a2.12 2.12 0 00-1.71-.73 1.79 1.79 0 00-1.91 1.85 1.8 1.8 0 001.91 1.89 2.08 2.08 0 001.71-.74h.06v1.46a3.11 3.11 0 01-1.83.47 3.08 3.08 0 110-6.08 3 3 0 011.83.43zm3.07 5.57h-1.33v-6h1.33v2.51l2.2-2.51h1.68l-2.67 3 2.76 3h-1.75l-2.22-2.54zm9.39 0v-2.39h-2.66v2.39h-1.33v-6h1.33v2.37h2.66V9.63h1.34v6zm9.21-3a3.14 3.14 0 11-3.14-3 3 3 0 013.14 3zm-4.93 0a1.79 1.79 0 103.58 0 1.79 1.79 0 10-3.58 0zm6.53 3v-6h1.33v4.79h3v1.21zm11.82 0V11.1l-1.74 4.48h-1.18l-1.67-4.38v4.38h-1.33v-6h2l1.6 4.17 1.6-4.17h2.05v6zm-55.09 8.4v1.38h-.06a2.54 2.54 0 00-1.83-.64c-.65 0-1.07.25-1.07.65s.26.5 1.16.6c1.57.17 2.17.71 2.17 1.85s-.87 1.88-2.4 1.88a3.8 3.8 0 01-2.22-.53V27.8h.06a3.33 3.33 0 002.12.72c.72 0 1.11-.23 1.11-.66s-.28-.52-1.19-.62c-1.54-.17-2.13-.69-2.13-1.78s.9-1.88 2.45-1.88a3.6 3.6 0 011.83.4zm7.03 3.08a2.6 2.6 0 11-5.2 0v-3.43h1.34v3.34c0 1 .44 1.54 1.29 1.54s1.3-.52 1.3-1.54v-3.34h1.28zm3.14-1.89v4.41h-1.29v-6h1.83l2.26 4v-4h1.28v6h-1.6zm8.43-1.54c2 0 3.19 1.09 3.19 3s-1.16 3-3.19 3h-2.43v-6zm-.08 4.79c1.25 0 1.92-.63 1.92-1.8s-.67-1.8-1.92-1.8h-1v3.6zm8.87-4.44v1.38h-.06a2.56 2.56 0 00-1.83-.64c-.66 0-1.07.25-1.07.65s.26.5 1.15.6c1.58.17 2.17.71 2.17 1.85s-.86 1.88-2.39 1.88a3.86 3.86 0 01-2.23-.53V27.8h.04a3.28 3.28 0 002.11.72c.73 0 1.12-.23 1.12-.66s-.28-.52-1.19-.62c-1.54-.17-2.13-.69-2.13-1.78s.9-1.92 2.41-1.92a3.63 3.63 0 011.9.44zm3.65 5.6l-2.35-6h1.48l1.59 4.26 1.58-4.26h1.4l-2.36 6zm8.42-1h-2.75l-.4 1h-1.4l2.55-6h1.29l2.55 6h-1.44zm-1.39-3.44l-.9 2.31h1.85l-.92-2.29zm4.66 4.44v-6h1.34v4.79h3v1.21zm5.9 0v-6h1.33v4.79h3v1.21z" fill="#fff"/></svg>