<svg id="Lager_1" data-name="Lager 1" xmlns="http://www.w3.org/2000/svg" viewBox="0 0 30 30"><defs><style>.cls-1{fill:#fff}</style></defs><path class="cls-1" d="M25.12 15a4.68 4.68 0 00-1.36-3.51c-1.76-1.66-4.66-1.64-5-1.63v10.29c.37 0 3.28 0 5-1.64A4.64 4.64 0 0025.12 15zM10.5 20.15h7.16l-7.16-9.59v9.59zm-5.62-4.8h4.91v4.79H4.88zm0-5.5h4.91v4.79H4.88zm13.14 9.58V9.85h-7.16l7.16 9.58zm4.47.72h2.63v-2.29a4.55 4.55 0 01-.88 1.14 5.86 5.86 0 01-1.75 1.15zM24.24 11a4.55 4.55 0 01.88 1.17V9.85h-2.68a6 6 0 011.8 1.15z"/><path class="cls-1" d="M15 0a15 15 0 1015 15A15 15 0 0015 0zm4 20.86H4.17V9.14h21.66v11.72z"/></svg>