<svg id="Lager_1" data-name="Lager 1" xmlns="http://www.w3.org/2000/svg" viewBox="0 0 30 30"><defs><style>.cls-1{fill:#fff;}</style></defs><title>instagram</title><path class="cls-1" d="M15,12.4A2.6,2.6,0,1,0,17.6,15,2.61,2.61,0,0,0,15,12.4Z"/><path class="cls-1" d="M18.12,8.24H11.88a3.64,3.64,0,0,0-3.64,3.64v6.24a3.64,3.64,0,0,0,3.64,3.64h6.24a3.64,3.64,0,0,0,3.64-3.64V11.88A3.64,3.64,0,0,0,18.12,8.24ZM15,19.16A4.16,4.16,0,1,1,19.16,15,4.16,4.16,0,0,1,15,19.16Zm4.47-8.08a.56.56,0,1,1,.56-.55A.55.55,0,0,1,19.47,11.08Z"/><path class="cls-1" d="M15,0A15,15,0,1,0,30,15,15,15,0,0,0,15,0Zm8.32,18.12a5.2,5.2,0,0,1-5.2,5.2H11.88a5.2,5.2,0,0,1-5.2-5.2V11.88a5.2,5.2,0,0,1,5.2-5.2h6.24a5.2,5.2,0,0,1,5.2,5.2Z"/></svg>