<svg id="Lager_1" data-name="Lager 1" xmlns="http://www.w3.org/2000/svg" viewBox="0 0 30 30"><defs><style>.cls-1{fill:#fff;}</style></defs><title>linkedin</title><path class="cls-1" d="M15,0A15,15,0,1,0,30,15,15,15,0,0,0,15,0ZM10.66,22.6H7.25V12.34h3.41Zm-.3-12.16a2,2,0,0,1-1.4.5h0a1.89,1.89,0,0,1-1.37-.5,1.73,1.73,0,0,1-.52-1.27,1.63,1.63,0,0,1,.54-1.26A1.9,1.9,0,0,1,9,7.4a1.86,1.86,0,0,1,1.37.51,1.7,1.7,0,0,1,.53,1.26A1.65,1.65,0,0,1,10.36,10.44ZM23,22.6H19.54V17.11a3,3,0,0,0-.42-1.7,1.47,1.47,0,0,0-1.31-.62,1.68,1.68,0,0,0-1.09.36,2.18,2.18,0,0,0-.65.88,2.41,2.41,0,0,0-.12.84V22.6h-3.4q0-4.14,0-6.7c0-1.71,0-2.73,0-3.06v-.5H16V13.8a4.14,4.14,0,0,1,.41-.55,5.34,5.34,0,0,1,.58-.54,2.92,2.92,0,0,1,.9-.45A4.39,4.39,0,0,1,19,12.1a3.65,3.65,0,0,1,2.84,1.18A4.91,4.91,0,0,1,23,16.72Z"/></svg>