<svg id="Lager_1" data-name="Lager 1" xmlns="http://www.w3.org/2000/svg" viewBox="0 0 30 30"><defs><style>.cls-1{fill:#fff;}</style></defs><title>portfolio</title><path class="cls-1" d="M25.12,15a4.68,4.68,0,0,0-1.36-3.51c-1.76-1.66-4.66-1.64-5-1.63V20.15c.37,0,3.28,0,5-1.64A4.64,4.64,0,0,0,25.12,15Z"/><polygon class="cls-1" points="10.5 20.15 17.66 20.15 10.5 10.56 10.5 20.15"/><rect class="cls-1" x="4.88" y="15.35" width="4.91" height="4.79"/><rect class="cls-1" x="4.88" y="9.85" width="4.91" height="4.79"/><polygon class="cls-1" points="18.02 19.43 18.02 9.85 10.86 9.85 18.02 19.43"/><path class="cls-1" d="M22.49,20.15h2.63V17.86A4.55,4.55,0,0,1,24.24,19,5.86,5.86,0,0,1,22.49,20.15Z"/><path class="cls-1" d="M24.24,11a4.55,4.55,0,0,1,.88,1.17V9.85H22.44A6,6,0,0,1,24.24,11Z"/><path class="cls-1" d="M15,0A15,15,0,1,0,30,15,15,15,0,0,0,15,0Zm4,20.86H4.17V9.14H25.83V20.86Z"/></svg>